<svg width="320" height="290" viewBox="0 0 320 290" fill="none" xmlns="http://www.w3.org/2000/svg">
<g opacity="0.1">
<mask id="mask0_3549_7503" style="mask-type:alpha" maskUnits="userSpaceOnUse" x="-131" y="-24" width="621" height="431">
<rect x="-131" y="-23.7317" width="620.847" height="430" fill="#121212"/>
</mask>
<g mask="url(#mask0_3549_7503)">
<path d="M776.429 918.376L776.429 1066.34L-381.386 1066.34C-541.828 735.448 -635.727 332.6 -635.727 -101.792L70.395 -101.792C70.3951 179.948 149.564 434.959 277.129 619.661C404.957 803.983 581.443 918.376 776.429 918.376Z" stroke="#F6946C" stroke-width="6.90002" stroke-miterlimit="10" stroke-linecap="round" stroke-linejoin="round"/>
<path d="M512.647 554.312C471.732 418.989 307.101 -81.6195 -78.6445 -305.222C-232.597 -394.468 -374.347 -412.196 -475.125 -410.406C-604.631 -302.518 -734.263 -194.524 -863.769 -86.6353L-1185.59 181.465C-1007.62 101.353 -636.182 -26.8332 -185.366 114.527C135.936 215.158 372.281 413.631 512.647 554.312Z" stroke="#F1DB8D" stroke-width="10.35" stroke-miterlimit="10" stroke-linecap="round" stroke-linejoin="round"/>
</g>
</g>
</svg>
